<svg width="178" height="74" viewBox="0 0 178 74" fill="none" xmlns="http://www.w3.org/2000/svg">
<path d="M177.82 37.6911L157.002 54.633C154.624 56.5667 152.14 58.4061 149.549 60.1509C146.966 61.9179 144.329 63.5265 141.639 64.9769L139.733 61.726C140.439 61.2753 141.264 60.7592 142.208 60.1777C143.151 59.5962 144.103 58.9822 145.063 58.3357C146.023 57.6892 146.944 57.0306 147.825 56.3597C148.698 55.7031 149.439 55.0678 150.049 54.4537L152.5 24L159.759 27.925L158.055 48.6805L172.794 34.9738L177.82 37.6911Z" fill="#FFF8F0"/>
<path d="M140.732 41.6933L132.898 39.1004L145.84 0L148.853 0.997294L150.981 10.7283L140.732 41.6933Z" fill="#FFF8F0"/>
<path d="M135.532 16.8132L129.769 23.7012C129.676 23.0279 129.539 22.2654 129.358 21.4138C129.177 20.5622 128.915 19.7557 128.572 18.9942C128.232 18.2166 127.784 17.5459 127.229 16.9822C126.677 16.4023 125.991 16.0487 125.17 15.9214C124.415 15.8041 123.725 15.8947 123.102 16.1934C122.496 16.4945 121.951 16.9287 121.467 17.4961C120.986 18.0473 120.556 18.697 120.176 19.4452C119.815 20.1797 119.5 20.9379 119.23 21.7196C118.979 22.4877 118.772 23.2379 118.609 23.9703C118.449 24.6865 118.327 25.3101 118.245 25.8408L116.077 39.8093L107.898 38.5399L112.223 10.6753L115.36 11.1621L117.657 18.1648C118.27 17.1892 118.933 16.3122 119.647 15.5335C120.363 14.7388 121.148 14.0865 122.001 13.5765C122.857 13.0505 123.787 12.6843 124.791 12.4777C125.811 12.2736 126.924 12.2652 128.13 12.4525C128.757 12.5498 129.448 12.7147 130.203 12.9471C130.96 13.1634 131.688 13.4577 132.388 13.8298C133.091 14.1859 133.724 14.6137 134.289 15.1131C134.854 15.6126 135.268 16.1793 135.532 16.8132Z" fill="#FFF8F0"/>
<path d="M102.992 31.8597L94.7461 32.1843L94.6136 28.8178C93.6903 30.1898 92.5502 31.2282 91.1934 31.9332C89.8523 32.6212 88.3604 32.9976 86.7178 33.0623C84.571 33.1468 82.6369 32.8401 80.9154 32.1423C79.1939 31.4445 77.7217 30.46 76.4989 29.1887C75.2755 27.9012 74.3195 26.3751 73.6311 24.6105C72.9427 22.8458 72.5581 20.9389 72.4775 18.8897C72.3968 16.8405 72.6303 14.9092 73.1779 13.0959C73.7255 11.2826 74.5588 9.69427 75.6779 8.33084C76.7964 6.95114 78.1863 5.84582 79.8476 5.01486C81.5089 4.1839 83.413 3.72617 85.5597 3.64167C86.6494 3.59878 87.6885 3.72077 88.6771 4.00763C89.682 4.29385 90.6029 4.72183 91.4397 5.29157C92.2922 5.84441 93.0441 6.53151 93.6954 7.35288C94.3623 8.15735 94.8948 9.06485 95.293 10.0754L98.7112 3.80814L101.883 3.68331L102.992 31.8597ZM94.1404 18.037C94.1116 17.3052 94.0405 16.5342 93.9272 15.7243C93.8301 14.9137 93.6764 14.1134 93.4662 13.3236C93.2559 12.5337 92.9741 11.7874 92.6206 11.0846C92.2828 10.3649 91.8509 9.73847 91.325 9.20536C90.8147 8.65534 90.2035 8.23146 89.4914 7.93372C88.7792 7.63598 87.9596 7.50535 87.0326 7.54184C86.1056 7.57833 85.3073 7.78078 84.6377 8.1492C83.9674 8.50136 83.3995 8.97165 82.934 9.56007C82.4679 10.1322 82.0866 10.7906 81.7901 11.5353C81.5099 12.2793 81.2961 13.0533 81.1485 13.8573C81.001 14.6612 80.9026 15.4714 80.8533 16.2877C80.8196 17.0872 80.8168 17.8447 80.845 18.5603C80.8732 19.2759 80.9358 20.039 81.0328 20.8496C81.1462 21.6596 81.308 22.4595 81.5182 23.2494C81.7285 24.0393 82.0025 24.794 82.3403 25.5137C82.6944 26.2328 83.1266 26.8673 83.6369 27.4173C84.1466 27.9511 84.7497 28.3753 85.4462 28.6899C86.142 28.9883 86.9535 29.1193 87.8805 29.0828C88.7262 29.0495 89.4676 28.8493 90.1047 28.4821C90.7574 28.0981 91.3162 27.6037 91.7811 26.999C92.2622 26.3937 92.6588 25.7103 92.9709 24.9487C93.283 24.1871 93.529 23.4037 93.7091 22.5985C93.8891 21.7933 94.0126 20.9984 94.0795 20.2139C94.1457 19.4132 94.166 18.6875 94.1404 18.037Z" fill="#FFF8F0"/>
<path d="M48.3674 30.7962C49.3865 30.9739 50.4032 31.1029 51.4176 31.183C52.4319 31.2632 53.4511 31.2779 54.4752 31.2273C55.5481 31.1742 56.5349 31.0276 57.4356 30.7874C58.3518 30.5303 59.1314 30.1495 59.7746 29.6451C60.4332 29.1236 60.9379 28.4549 61.2886 27.6391C61.6394 26.8232 61.7854 25.8219 61.7266 24.6352C61.6792 23.6761 61.5057 22.8047 61.2062 22.021C60.9067 21.2374 60.4827 20.5739 59.9344 20.0307C59.4023 19.4867 58.7547 19.0787 57.9916 18.8068C57.2278 18.5187 56.35 18.3992 55.3584 18.4483C54.4318 18.4941 53.603 18.7062 52.8722 19.0846C52.1575 19.4622 51.5302 19.9577 50.9902 20.5711C50.4656 21.1674 50.0191 21.8576 49.6505 22.6418C49.2981 23.4251 49.0124 24.2377 48.7934 25.0797C48.5743 25.9216 48.4288 26.7681 48.3568 27.619C48.2848 28.47 48.2674 29.2693 48.3044 30.0171C48.3108 30.1472 48.3172 30.2772 48.3237 30.4073C48.3301 30.5373 48.3447 30.667 48.3674 30.7962ZM68.4043 24.2315C68.4614 25.3856 68.3256 26.4272 67.9967 27.356C67.6671 28.2686 67.194 29.0824 66.5776 29.7973C65.9773 30.5114 65.2663 31.1251 64.4443 31.6384C63.6223 32.1516 62.7394 32.5864 61.7955 32.9428C60.8509 33.2828 59.8697 33.5432 58.852 33.724C57.8506 33.9039 56.8703 34.0176 55.9112 34.065C54.692 34.1254 53.485 34.1036 52.2903 33.9998C51.0947 33.8797 49.9106 33.6613 48.7379 33.3445C48.9698 34.4085 49.305 35.4186 49.7434 36.3747C50.181 37.3145 50.743 38.134 51.4295 38.8334C52.1151 39.5165 52.9398 40.046 53.9036 40.422C54.8836 40.7972 56.0239 40.9527 57.3244 40.8883C58.186 40.8457 59.0005 40.675 59.7679 40.3763C60.5353 40.0776 61.2325 39.6764 61.8594 39.1728C62.4863 38.6692 63.0275 38.0802 63.483 37.4058C63.9548 36.7306 64.3254 35.9871 64.5948 35.1753L68.2201 36.3159C67.7472 37.6267 67.0626 38.7768 66.1664 39.7663C65.2857 40.7388 64.2673 41.5632 63.1111 42.2397C61.9705 42.8991 60.7408 43.4081 59.4223 43.7666C58.1201 44.1244 56.8187 44.3355 55.5182 44.3998C53.3724 44.506 51.3714 44.2465 49.5153 43.6213C47.6585 42.9799 46.0395 42.0415 44.6584 40.8062C43.2772 39.5709 42.1682 38.0695 41.3311 36.3021C40.494 34.5346 40.0224 32.578 39.9162 30.4322C39.81 28.2864 40.0862 26.2928 40.7446 24.4513C41.4031 22.6099 42.3586 21.0063 43.611 19.6407C44.8634 18.275 46.3822 17.1895 48.1675 16.3842C49.952 15.5625 51.9171 15.0986 54.063 14.9925C55.1033 14.941 56.1717 14.9614 57.2681 15.0538C58.3645 15.1462 59.4329 15.3297 60.4731 15.6041C61.5125 15.8623 62.4999 16.2208 63.4351 16.6797C64.3704 17.1386 65.1898 17.7255 65.8933 18.4403C66.6123 19.138 67.191 19.9649 67.6294 20.921C68.0841 21.8762 68.3424 22.9797 68.4043 24.2315Z" fill="#FFF8F0"/>
<path d="M33.3856 25.0157C34.2351 26.8822 34.7492 28.7584 34.9279 30.6441C35.1066 32.5299 34.9391 34.3229 34.4253 36.0231C33.9048 37.7084 33.0327 39.2497 31.8089 40.6472C30.5851 42.0446 28.9955 43.1883 27.0401 44.0783C25.5439 44.7592 24.0347 45.0974 22.5126 45.0927C20.9985 45.0665 19.5206 44.6483 18.079 43.8381L24.8649 58.7483L17.3542 62.1666L8.81873 43.4121L0.283203 24.6576L3.17192 23.3429L9.04347 27.4034C8.94462 26.3218 9.00474 25.2751 9.22382 24.2634C9.45098 23.2301 9.81355 22.2783 10.3115 21.4079C10.8175 20.5159 11.4476 19.7195 12.2016 19.0187C12.9704 18.3112 13.851 17.7316 14.8436 17.2798C16.799 16.3899 18.7055 15.9424 20.563 15.9375C22.4206 15.9326 24.1591 16.2948 25.7785 17.0241C27.3912 17.7386 28.8499 18.7825 30.1545 20.1558C31.459 21.5292 32.5361 23.1491 33.3856 25.0157ZM25.7638 28.4845C25.4671 27.8327 25.1166 27.1607 24.7121 26.4685C24.3158 25.7548 23.8709 25.0721 23.3776 24.4203C22.8843 23.7686 22.3378 23.1769 21.7381 22.6451C21.1533 22.1066 20.524 21.6866 19.8504 21.3852C19.17 21.069 18.4439 20.9077 17.672 20.9013C16.9082 20.8734 16.1116 21.0482 15.282 21.4257C14.4228 21.8168 13.7421 22.3054 13.2399 22.8916C12.7526 23.471 12.3973 24.1245 12.174 24.852C11.9589 25.5579 11.8548 26.3116 11.8619 27.1131C11.8771 27.893 11.9684 28.683 12.1358 29.4831C12.3032 30.2831 12.5185 31.0703 12.7815 31.8447C13.0594 32.6124 13.35 33.3296 13.6534 33.9962C13.9231 34.5887 14.2675 35.2277 14.6868 35.9132C15.0993 36.5838 15.567 37.2382 16.0899 37.8764C16.6129 38.5147 17.185 39.1037 17.8062 39.6436C18.4274 40.1834 19.0816 40.6189 19.7688 40.9499C20.4707 41.2743 21.1921 41.4646 21.933 41.5208C22.682 41.5555 23.4416 41.3974 24.2119 41.0469C25.0563 40.6625 25.7222 40.1806 26.2095 39.6012C26.6901 39.0069 27.038 38.3568 27.2532 37.6509C27.4617 36.9301 27.5549 36.1724 27.533 35.3777C27.5259 34.5762 27.4386 33.7754 27.2712 32.9755C27.1038 32.1755 26.8812 31.3915 26.6033 30.6238C26.3403 29.8494 26.0604 29.1363 25.7638 28.4845Z" fill="#FFF8F0"/>
<path d="M40.2605 59H126L128 64H37L40.2605 59Z" fill="#FFF8F0"/>
</svg>
